HIERARCHY
ROOT Hips
{
	OFFSET 0.000000 0.000000 0.000000
	CHANNELS 6 Xposition Yposition Zposition Zrotation Yrotation Xrotation 
	JOINT LHipJoint
	{
		OFFSET 0.000000 0.000000 0.000000
		CHANNELS 3 Zrotation Yrotation Xrotation
		JOINT LeftUpLeg
		{
			OFFSET 1.363060 -1.794630 0.839290
			CHANNELS 3 Zrotation Yrotation Xrotation
			JOINT LeftLeg
			{
				OFFSET 2.448110 -6.726130 0.000000
				CHANNELS 3 Zrotation Yrotation Xrotation
				JOINT LeftFoot
				{
					OFFSET 2.562200 -7.039590 0.000000
					CHANNELS 3 Zrotation Yrotation Xrotation
					JOINT LeftToeBase
					{
						OFFSET 0.157640 -0.433110 2.322550
						CHANNELS 3 Zrotation Yrotation Xrotation
						End Site
						{
							OFFSET 0.000000 0.000000 0.000000
						}
					}
				}
			}
		}
	}
	JOINT RHipJoint
	{
		OFFSET 0.000000 0.000000 0.000000
		CHANNELS 3 Zrotation Yrotation Xrotation
		JOINT RightUpLeg
		{
			OFFSET -1.305520 -1.794630 0.839290
			CHANNELS 3 Zrotation Yrotation Xrotation
			JOINT RightLeg
			{
				OFFSET -2.542530 -6.985550 0.000000
				CHANNELS 3 Zrotation Yrotation Xrotation
				JOINT RightFoot
				{
					OFFSET -2.568260 -7.056230 0.000000
					CHANNELS 3 Zrotation Yrotation Xrotation
					JOINT RightToeBase
					{
						OFFSET -0.164730 -0.452590 2.363150
						CHANNELS 3 Zrotation Yrotation Xrotation
						End Site
						{
							OFFSET 0.000000 0.000000 0.000000
						}
					}
				}
			}
		}
	}
	JOINT LowerBack
	{
		OFFSET 0.000000 0.000000 0.000000
		CHANNELS 3 Zrotation Yrotation Xrotation
		JOINT Spine
		{
			OFFSET 0.028270 2.035590 -0.193380
			CHANNELS 3 Zrotation Yrotation Xrotation
			JOINT Spine1
			{
				OFFSET 0.056720 2.048850 -0.042750
				CHANNELS 3 Zrotation Yrotation Xrotation
				JOINT Neck
				{
					OFFSET 0.000000 0.000000 0.000000
					CHANNELS 3 Zrotation Yrotation Xrotation
					JOINT Neck1
					{
						OFFSET -0.054170 1.746240 0.172020
						CHANNELS 3 Zrotation Yrotation Xrotation
						JOINT Head
						{
							OFFSET 0.104070 1.761360 -0.123970
							CHANNELS 3 Zrotation Yrotation Xrotation
							End Site
							{
								OFFSET 0.000000 0.000000 0.000000
							}
						}
					}
				}
				JOINT LeftShoulder
				{
					OFFSET 0.000000 0.000000 0.000000
					CHANNELS 3 Zrotation Yrotation Xrotation
					JOINT LeftArm
					{
						OFFSET 3.362410 1.200890 -0.311210
						CHANNELS 3 Zrotation Yrotation Xrotation
						JOINT LeftForeArm
						{
							OFFSET 4.983000 -0.000000 -0.000000
							CHANNELS 3 Zrotation Yrotation Xrotation
							JOINT LeftHand
							{
								OFFSET 3.483560 -0.000000 -0.000000
								CHANNELS 3 Zrotation Yrotation Xrotation
								JOINT LeftFingerBase
								{
									OFFSET 0.000000 0.000000 0.000000
									CHANNELS 3 Zrotation Yrotation Xrotation
									JOINT LeftHandIndex1
									{
										OFFSET 0.715260 -0.000000 -0.000000
										CHANNELS 3 Zrotation Yrotation Xrotation
										End Site
										{
											OFFSET 0.000000 0.000000 0.000000
										}
									}
								}
								JOINT LThumb
								{
									OFFSET 0.000000 0.000000 0.000000
									CHANNELS 3 Zrotation Yrotation Xrotation
									End Site
									{
										OFFSET 0.000000 0.000000 0.000000
									}
								}
							}
						}
					}
				}
				JOINT RightShoulder
				{
					OFFSET 0.000000 0.000000 0.000000
					CHANNELS 3 Zrotation Yrotation Xrotation
					JOINT RightArm
					{
						OFFSET -3.136600 1.374050 -0.404650
						CHANNELS 3 Zrotation Yrotation Xrotation
						JOINT RightForeArm
						{
							OFFSET -5.241900 -0.000000 -0.000000
							CHANNELS 3 Zrotation Yrotation Xrotation
							JOINT RightHand
							{
								OFFSET -3.444170 -0.000000 -0.000000
								CHANNELS 3 Zrotation Yrotation Xrotation
								JOINT RightFingerBase
								{
									OFFSET 0.000000 0.000000 0.000000
									CHANNELS 3 Zrotation Yrotation Xrotation
									JOINT RightHandIndex1
									{
										OFFSET -0.622530 -0.000000 -0.000000
										CHANNELS 3 Zrotation Yrotation Xrotation
										End Site
										{
											OFFSET 0.000000 0.000000 0.000000
										}
									}
								}
								JOINT RThumb
								{
									OFFSET 0.000000 0.000000 0.000000
									CHANNELS 3 Zrotation Yrotation Xrotation
									End Site
									{
										OFFSET 0.000000 0.000000 0.000000
									}
								}
							}
						}
					}
				}
			}
		}
	}
}
MOTION
Frames: 5
Frame Time: 0.008333
8.054841 15.797956 0.902614 -17.828338 82.463462 13.246570 -9.753200 -1.824054 -2.811801 -12.397261 2.991876 -68.397074 1.040631 5.855002 78.690544 3.751483 17.162157 -22.197092 -3.918399 0.000000 -16.329700 9.255117 0.667845 -2.809911 17.191566 -1.027924 -53.765839 1.410487 -4.937488 64.845547 -0.896366 2.453469 -24.714404 0.133100 0.000000 -32.632600 4.347219 0.102603 8.240991 0.315509 0.196496 -1.276217 -4.676241 0.178881 -0.230937 8.346151 -6.994633 -6.558319 -2.052763 -0.141776 -0.115667 0.000000 0.000000 0.000000 2.391466 9.958091 2.820767 -73.812225 14.632059 14.962968 -0.842153 -69.798217 0.004731 -1.988737 6.452955 -0.110298 0.004932 0.097947 0.000000 0.000000 0.000000 0.000000 0.000000 0.000000 0.000000 6.890956 -1.294711 0.210239 62.283099 24.147380 11.996843 0.177035 84.661811 -0.012636 -2.835514 6.073630 -0.165593 0.078571 -0.454700 -0.000000 0.000000 0.000000 0.000000 0.000000 0.000000 0.000000 
8.191488 15.824632 0.907712 -17.946659 82.494221 13.171712 -9.580998 -1.850669 -2.680383 -12.822925 2.727239 -69.598800 0.886340 5.820928 77.419564 3.846363 17.251345 -22.425965 -3.987500 -0.000000 -15.911500 9.291363 0.615934 -2.925795 17.111452 -1.486514 -53.006785 1.475424 -4.894214 64.349065 -0.827501 2.770289 -24.492674 0.047600 -0.000000 -33.631400 4.096521 0.183983 8.233319 0.273949 0.287316 -1.267567 -4.617626 0.269793 -0.177621 8.235069 -6.971486 -6.543432 -2.013846 -0.139299 -0.111283 0.000000 0.000000 0.000000 2.257043 10.280836 2.828452 -73.745811 15.375145 14.938029 -0.844122 -69.862767 0.005118 -2.175804 6.444343 -0.120720 0.007485 0.093328 0.000000 0.000000 0.000000 0.000000 0.000000 0.000000 0.000000 6.650546 -1.226218 0.179012 61.685055 24.890340 12.127232 0.145406 85.351220 -0.012369 -2.761107 6.007025 -0.159704 0.078098 -0.457896 0.000000 0.000000 0.000000 0.000000 0.000000 0.000000 0.000000 
8.330070 15.849869 0.911948 -18.232924 82.551538 12.925935 -9.410821 -1.865778 -2.537339 -13.225233 2.441856 -70.729184 0.719482 5.774976 76.034983 3.932337 17.269307 -22.646451 -4.038600 -0.000000 -15.595000 9.329451 0.558448 -3.043266 17.038727 -1.954562 -52.232737 1.540744 -4.852104 63.844374 -0.756972 3.092156 -24.249175 -0.038300 -0.000000 -34.588300 3.867814 0.258574 8.215631 0.236413 0.371023 -1.261631 -4.564069 0.353587 -0.126177 8.133311 -6.951330 -6.536214 -1.977596 -0.136927 -0.108791 0.000000 0.000000 0.000000 2.137354 10.594821 2.836015 -73.684956 16.097673 14.892852 -0.845719 -69.930020 0.005429 -2.350288 6.463813 -0.131041 0.009818 0.088591 0.000000 0.000000 0.000000 0.000000 0.000000 0.000000 0.000000 6.428375 -1.163418 0.151935 61.075552 25.573409 12.204151 0.113075 86.040980 -0.011989 -2.667495 5.932974 -0.152718 0.077138 -0.460834 -0.000000 0.000000 0.000000 0.000000 0.000000 0.000000 0.000000 
8.470750 15.873591 0.915259 -18.702680 82.632289 12.494549 -9.243653 -1.869949 -2.382943 -13.600140 2.138315 -71.782380 0.540017 5.716245 74.534731 4.005929 17.201470 -22.850763 -4.065700 -0.000000 -15.399800 9.369611 0.495188 -3.161861 16.974398 -2.428211 -51.445190 1.605925 -4.811576 63.337346 -0.685431 3.417021 -23.987700 -0.123499 0.000000 -35.486500 3.662689 0.326697 8.188005 0.203159 0.447937 -1.258750 -4.515763 0.430580 -0.078022 8.040257 -6.933092 -6.536904 -1.943496 -0.134617 -0.108267 0.000000 0.000000 0.000000 2.029375 10.898779 2.843948 -73.627657 16.800585 14.831967 -0.846812 -70.000602 0.005652 -2.504778 6.508910 -0.140962 0.011842 0.083782 0.000000 0.000000 0.000000 0.000000 0.000000 0.000000 0.000000 6.220067 -1.104250 0.128479 60.465779 26.191187 12.228970 0.080159 86.728677 -0.011491 -2.553633 5.851850 -0.144429 0.075635 -0.463543 -0.000000 0.000000 0.000000 0.000000 0.000000 0.000000 0.000000 
8.613566 15.895645 0.917755 -19.340388 82.732044 11.892263 -9.080753 -1.864017 -2.219003 -13.946803 1.821468 -72.751529 0.349012 5.644098 72.918560 4.063767 17.041172 -23.013506 -4.059200 0.000000 -15.463700 9.412119 0.426675 -3.281620 16.914724 -2.904793 -50.644288 1.669097 -4.772728 62.830310 -0.613122 3.737814 -23.695926 -0.206400 0.000000 -36.511700 3.477171 0.388651 8.152740 0.173392 0.518479 -1.258722 -4.472278 0.501211 -0.034396 7.955248 -6.915064 -6.546144 -1.910525 -0.132275 -0.109971 0.000000 0.000000 0.000000 1.932662 11.195305 2.853296 -73.571445 17.479981 14.761886 -0.847460 -70.074991 0.005789 -2.638015 6.578963 -0.150282 0.013516 0.078928 0.000000 0.000000 0.000000 0.000000 0.000000 0.000000 0.000000 6.018836 -1.045590 0.107301 59.870295 26.736224 12.204674 0.046868 87.411465 -0.010907 -2.424884 5.769515 -0.135445 0.073625 -0.466162 -0.000000 0.000000 0.000000 0.000000 0.000000 0.000000 0.000000 
